<?xml version="1.0"?>
<svg xmlns="http://www.w3.org/2000/svg" xmlns:xlink="http://www.w3.org/1999/xlink" xmlns:svgjs="http://svgjs.com/svgjs" version="1.1" width="512" height="512" x="0" y="0" viewBox="0 0 512 512" style="enable-background:new 0 0 512 512" xml:space="preserve" class=""><g><path xmlns="http://www.w3.org/2000/svg" d="m509.234 339.012-20.407-50.706c6.743-2.975 11.467-9.715 11.467-17.547v-37.744c0-10.575-8.604-19.179-19.179-19.179h-1.244c-8.408 0-15.553 5.447-18.135 12.991-7.117-8.123-17.458-12.991-28.727-12.991h-24.071v-120.24c0-12.376-10.069-22.445-22.445-22.445h-25.031c-4.221 0-7.642 3.421-7.642 7.642s3.421 7.642 7.642 7.642h25.031c3.949 0 7.161 3.212 7.161 7.161v120.241h-27.937c-6.183 0-12.241 2.088-17.057 5.878-16.261 12.795-42.617 20.433-70.502 20.433-9.425 0-18.695-.85-27.554-2.526-4.148-.786-8.145 1.941-8.93 6.088-.785 4.148 1.941 8.146 6.089 8.93 9.793 1.853 20.02 2.792 30.395 2.792 31.664 0 60.806-8.64 79.954-23.706 2.134-1.68 4.835-2.605 7.605-2.605h67.294c9.429 0 17.796 5.652 21.316 14.399l40.728 101.199c1.103 2.738 1.662 5.624 1.662 8.579v69.063c0 1.767-1.437 3.204-3.204 3.204h-430.711c-1.767 0-3.204-1.437-3.204-3.204v-10.91c0-4.221-3.422-7.642-7.642-7.642s-7.642 3.421-7.642 7.642v10.91c0 10.195 8.294 18.489 18.489 18.489h430.709c10.195 0 18.489-8.294 18.489-18.489v-69.063c-.001-4.919-.931-9.725-2.767-14.286zm-33.257-105.997c0-2.147 1.746-3.894 3.894-3.894h1.244c2.147 0 3.894 1.746 3.894 3.894v37.744c0 1.418-.769 2.648-1.905 3.329l-7.149-17.763c.008-.146.022-.291.022-.439z" fill="#f25d59" data-original="#000000" style="" class=""/><path xmlns="http://www.w3.org/2000/svg" d="m168.442 303.64v-1.219c0-6.247-5.064-11.311-11.311-11.311h-21.884c-6.247 0-11.311 5.064-11.311 11.311v1.219c0 6.247 5.064 11.311 11.311 11.311h21.884c6.247 0 11.311-5.064 11.311-11.311z" fill="#f25d59" data-original="#000000" style="" class=""/><path xmlns="http://www.w3.org/2000/svg" d="m223.114 291.11h-21.884c-6.247 0-11.311 5.064-11.311 11.311v1.219c0 6.247 5.064 11.311 11.311 11.311h21.884c6.247 0 11.311-5.064 11.311-11.311v-1.219c.001-6.247-5.064-11.311-11.311-11.311z" fill="#f25d59" data-original="#000000" style="" class=""/><path xmlns="http://www.w3.org/2000/svg" d="m289.098 291.11h-21.884c-6.247 0-11.311 5.064-11.311 11.311v1.219c0 6.247 5.064 11.311 11.311 11.311h21.884c6.247 0 11.311-5.064 11.311-11.311v-1.219c0-6.247-5.064-11.311-11.311-11.311z" fill="#f25d59" data-original="#000000" style="" class=""/><path xmlns="http://www.w3.org/2000/svg" d="m355.082 291.11h-21.884c-6.247 0-11.311 5.064-11.311 11.311v1.219c0 6.247 5.064 11.311 11.311 11.311h21.884c6.247 0 11.311-5.064 11.311-11.311v-1.219c0-6.247-5.064-11.311-11.311-11.311z" fill="#f25d59" data-original="#000000" style="" class=""/><path xmlns="http://www.w3.org/2000/svg" d="m421.066 291.11h-21.884c-6.247 0-11.311 5.064-11.311 11.311v1.219c0 6.247 5.064 11.311 11.311 11.311h21.884c6.247 0 11.311-5.064 11.311-11.311v-1.219c0-6.247-5.064-11.311-11.311-11.311z" fill="#f25d59" data-original="#000000" style="" class=""/><path xmlns="http://www.w3.org/2000/svg" d="m124.054 330.372h-21.884c-6.247 0-11.311 5.064-11.311 11.311v1.219c0 6.247 5.064 11.311 11.311 11.311h21.884c6.247 0 11.311-5.064 11.311-11.311v-1.219c0-6.247-5.064-11.311-11.311-11.311z" fill="#f25d59" data-original="#000000" style="" class=""/><path xmlns="http://www.w3.org/2000/svg" d="m168.154 354.213h21.884c6.247 0 11.311-5.064 11.311-11.311v-1.219c0-6.247-5.064-11.311-11.311-11.311h-21.884c-6.247 0-11.311 5.064-11.311 11.311v1.219c0 6.247 5.064 11.311 11.311 11.311z" fill="#f25d59" data-original="#000000" style="" class=""/><path xmlns="http://www.w3.org/2000/svg" d="m222.827 341.683v1.219c0 6.247 5.064 11.311 11.311 11.311h21.884c6.247 0 11.311-5.064 11.311-11.311v-1.219c0-6.247-5.064-11.311-11.311-11.311h-21.884c-6.247 0-11.311 5.064-11.311 11.311z" fill="#f25d59" data-original="#000000" style="" class=""/><path xmlns="http://www.w3.org/2000/svg" d="m288.811 341.683v1.219c0 6.247 5.064 11.311 11.311 11.311h21.884c6.247 0 11.311-5.064 11.311-11.311v-1.219c0-6.247-5.064-11.311-11.311-11.311h-21.884c-6.247 0-11.311 5.064-11.311 11.311z" fill="#f25d59" data-original="#000000" style="" class=""/><path xmlns="http://www.w3.org/2000/svg" d="m354.794 341.683v1.219c0 6.247 5.064 11.311 11.311 11.311h21.884c6.247 0 11.311-5.064 11.311-11.311v-1.219c0-6.247-5.064-11.311-11.311-11.311h-21.884c-6.246 0-11.311 5.064-11.311 11.311z" fill="#f25d59" data-original="#000000" style="" class=""/><path xmlns="http://www.w3.org/2000/svg" d="m420.863 341.683v1.219c0 6.247 5.064 11.311 11.311 11.311h21.884c6.247 0 11.311-5.064 11.311-11.311v-1.219c0-6.247-5.064-11.311-11.311-11.311h-21.884c-6.247 0-11.311 5.064-11.311 11.311z" fill="#f25d59" data-original="#000000" style="" class=""/><path xmlns="http://www.w3.org/2000/svg" d="m207.279 136.231h70.877c4.221 0 7.642-3.421 7.642-7.642s-3.421-7.642-7.642-7.642h-70.877c-4.221 0-7.642 3.421-7.642 7.642s3.422 7.642 7.642 7.642z" fill="#f25d59" data-original="#000000" style="" class=""/><path xmlns="http://www.w3.org/2000/svg" d="m199.637 161.879c0 4.221 3.422 7.642 7.642 7.642h140.829c4.221 0 7.642-3.421 7.642-7.642s-3.421-7.642-7.642-7.642h-140.829c-4.22-.001-7.642 3.42-7.642 7.642z" fill="#f25d59" data-original="#000000" style="" class=""/><path xmlns="http://www.w3.org/2000/svg" d="m51.673 273.741.847 3.96c.675 3.155 2.813 5.8 5.757 7.122l8.987 4.035-20.184 50.153c-1.836 4.562-2.767 9.368-2.767 14.287v22.829c0 4.221 3.422 7.642 7.642 7.642s7.642-3.421 7.642-7.642v-22.829c0-2.954.559-5.84 1.661-8.58l40.727-101.198c3.521-8.747 11.888-14.399 21.318-14.399h67.294c2.769 0 5.47.925 7.605 2.605 3.832 3.015 8.156 5.825 12.853 8.351 3.715 1.997 8.351.607 10.351-3.111 1.999-3.718.606-8.352-3.111-10.351-3.921-2.109-7.501-4.43-10.64-6.9-4.817-3.791-10.875-5.879-17.057-5.879h-27.938v-120.24c0-3.949 3.212-7.161 7.161-7.161h156.316c4.221 0 7.642-3.421 7.642-7.642s-3.421-7.642-7.642-7.642h-156.317c-12.377 0-22.445 10.069-22.445 22.445v120.241h-24.071c-10.956 0-21.041 4.592-28.133 12.311-2.77-7.188-9.733-12.311-17.886-12.311h-1.243c-10.575 0-19.179 8.604-19.179 19.179v17.422l-43.896-19.705c-4.634-2.08-10.077-.01-12.157 4.624s-.01 10.077 4.624 12.157l39.299 17.641c3.548 1.593 6.126 4.782 6.94 8.586zm20.474-40.726c0-2.147 1.747-3.894 3.894-3.894h1.243c2.147 0 3.894 1.746 3.894 3.894v20.91c0 .108.012.212.016.319l-2.426 6.027-7.297-3.275c.43-.956.674-2.012.674-3.128v-20.853z" fill="#f25d59" data-original="#000000" style="" class=""/></g></svg>
