<?xml version="1.0"?>
<svg xmlns="http://www.w3.org/2000/svg" xmlns:xlink="http://www.w3.org/1999/xlink" xmlns:svgjs="http://svgjs.com/svgjs" version="1.1" width="512" height="512" x="0" y="0" viewBox="0 0 64 64" style="enable-background:new 0 0 512 512" xml:space="preserve" class=""><g><g xmlns="http://www.w3.org/2000/svg" id="Outline"><path d="M59,2H5A3,3,0,0,0,2,5V59a3,3,0,0,0,3,3H59a3,3,0,0,0,3-3V5A3,3,0,0,0,59,2Zm1,57a1,1,0,0,1-1,1H5a1,1,0,0,1-1-1V12H60ZM4,10V5A1,1,0,0,1,5,4H59a1,1,0,0,1,1,1v5Z" fill="#f25d59" data-original="#000000" style="" class=""/><path d="M49,6H15a1,1,0,0,0,0,2H49a1,1,0,0,0,0-2Z" fill="#f25d59" data-original="#000000" style="" class=""/><path d="M24,14H6V26H24ZM13.113,20,8,23.2v-6.39Zm-2.626-4h9.026L15,18.82ZM15,21.18,19.513,24H10.487ZM16.887,20,22,16.805V23.2Z" fill="#f25d59" data-original="#000000" style="" class=""/><path d="M58,14H26V26H58ZM56,24H28V16H56Z" fill="#f25d59" data-original="#000000" style="" class=""/><path d="M58,28H6V38H58Zm-2,8H8V30H56Z" fill="#f25d59" data-original="#000000" style="" class=""/><path d="M32,40H6V58H32ZM30,56H8V42H30Z" fill="#f25d59" data-original="#000000" style="" class=""/><path d="M34,58H58V40H34Zm13.7-9L56,42.963V55.037Zm6.225,7H38.075L46,50.236ZM46,47.764,38.075,42h15.85ZM44.3,49,36,55.037V42.963Z" fill="#f25d59" data-original="#000000" style="" class=""/></g></g></svg>
