<svg xmlns="http://www.w3.org/2000/svg" viewBox="0 0 553.05 156.39">
  <path fill="#002E5D" d="M62.72 59.12V32.35c0-2.07-.3-3.67-.3-3.67s1.86.3 3.68.3h20.18c15.36 0 24.38 2.38 24.38 16.34 0 9.07-5.6 17.17-23.75 17.17h-20.8c-1.82 0-3.62.23-3.62.23s.23-1.75.23-3.6m0 61.44V89.6c0-2.08-.25-3.62-.25-3.62s1.81.25 3.62.25h17.07c13.61 0 30.28 0 30.28 18.85 0 13.96-11.93 18.85-27.98 18.85H66.09c-1.83 0-3.58.27-3.58.27s.21-1.86.21-3.64M13.78 12.33l-.02 128.92c0 4.18.25 5.67-2.71 7.51-2.9 1.8-5.87 2.09-10.64 2.9 0 0-.05.01-.09.02-.48.12-.39 1.92.09 1.92H104.7c43.99 0 62.49-17.46 62.49-44.69 0-20.13-9.37-32.44-27.94-37.06-.31-.08-.33-.5 0-.59 11.83-3.69 22.7-12.25 22.7-33.21C161.95 9.63 142.75 0 100.86 0H.44c-.48 0-.58 1.8-.1 1.92.04.01.09.02.09.02 4.77.81 7.74 1.11 10.64 2.91 2.96 1.83 2.71 3.3 2.71 7.48M539.28 12.33c0-4.18-.25-5.65 2.71-7.48 2.9-1.8 5.87-2.1 10.64-2.91 0 0 .05-.01.09-.02.49-.12.4-1.92-.08-1.92h-76.93c-.48 0-.57 1.8-.09 1.91.04.01.09.02.09.02 4.86.61 7.11 1.11 10.01 2.91 2.96 1.84 2.72 3.31 2.72 7.49v77.48c0 17.67-10.12 31.24-30.21 31.24-20.09 0-30.21-13.57-30.21-31.24l.01-77.46c0-4.18-.25-5.67 2.71-7.51 2.9-1.8 5.32-2.25 10.01-2.91 0 0 .05-.01.09-.02.48-.12.39-1.92-.1-1.92h-72.59c-.54 0-.43 1.81.02 1.91.04.01.09.02.09.02 2.65.16 4.48.31 6.11 1.71 2.42 2.06 2.81 4.51 2.81 8.69v76.17c0 36.72 20.09 67.89 81.06 67.89s81.06-31.18 81.06-67.89V12.33zM306.17 153.61c.48 0 .58-1.8.1-1.92-.04-.01-.09-.02-.09-.02-4.77-.81-7.74-1.11-10.64-2.91-2.96-1.84-2.72-3.32-2.72-7.51V92.33l53.2-78.99c2.92-4.33 4.78-6.59 7.17-8.61.41-.35 1.39-.99 1.99-1.37 2.19-1.1 3.03-1.36 5.74-1.43 0 0 .05-.01.09-.02.48-.06.64-1.91.08-1.91h-71.75c-.59 0-.47 1.88.03 1.93.04 0 .09.02.09.02 3.48 0 7.77.03 7.07 5.02-.4 4.85-21.08 34.75-28.44 46.11-1.06 1.63-1.88 3.31-2.23 5.35-.27-2.01-1.53-4.06-2.38-5.33-10.27-15.28-27.83-40.07-28.33-46.14-.43-5.18 3.59-5.03 7.07-5.03 0 0 .05-.02.09-.02.5-.05.68-1.9.1-1.9h-75.34c-.45 0-.4 1.73.05 1.9.04.01.09.02.09.02 3.22.33 4.97.1 8.74 1.94.44.21 1.49.92 1.9 1.26 2.39 2.01 3.85 3.88 6.77 8.21L237.74 92v49.26c0 4.18.25 5.67-2.71 7.51-2.9 1.8-5.87 2.09-10.64 2.91 0 0-.05.01-.09.02-.48.12-.39 1.92.09 1.92l81.78-.01z"/>
</svg>
